<?xml version="1.0" standalone="no"?>
<!DOCTYPE svg PUBLIC "-//W3C//DTD SVG 20010904//EN"
 "http://www.w3.org/TR/2001/REC-SVG-20010904/DTD/svg10.dtd">
<svg version="1.0" xmlns="http://www.w3.org/2000/svg"
 width="1280.000000pt" height="1227.000000pt" viewBox="0 0 1280.000000 1227.000000"
 preserveAspectRatio="xMidYMid meet">
<metadata>
Created by potrace 1.15, written by Peter Selinger 2001-2017
</metadata>
<g transform="translate(0.000000,1227.000000) scale(0.100000,-0.100000)"
fill="#000000" stroke="none">
<path d="M6115 12264 c-27 -2 -122 -8 -210 -14 -589 -41 -1218 -175 -1782
-381 -2172 -794 -3731 -2663 -4058 -4862 -48 -324 -59 -488 -59 -872 0 -384
11 -548 59 -872 292 -1961 1569 -3678 3410 -4583 768 -378 1537 -587 2430
-662 194 -16 796 -16 990 0 637 53 1210 176 1765 377 1256 456 2329 1277 3080
2358 300 432 575 976 744 1474 359 1059 413 2194 155 3282 -102 428 -245 823
-454 1246 -486 986 -1213 1806 -2155 2430 -923 612 -1971 970 -3115 1065 -131
11 -707 21 -800 14z m710 -104 c213 -15 482 -46 685 -81 2633 -449 4691 -2455
5114 -4984 55 -328 76 -591 76 -960 0 -469 -39 -833 -136 -1270 -429 -1929
-1846 -3556 -3753 -4310 -780 -307 -1561 -455 -2411 -455 -398 0 -743 28
-1108 91 -1740 297 -3265 1278 -4217 2714 -563 849 -890 1804 -965 2820 -13
180 -13 640 0 820 127 1729 997 3293 2425 4360 974 728 2181 1170 3420 1254
176 12 697 12 870 1z"/>
<path d="M4745 10988 c-8 -20 -815 -3831 -812 -3834 1 -1 218 -27 482 -58
l480 -56 34 42 c19 24 87 95 150 159 272 271 636 445 1058 505 130 18 446 20
583 4 455 -56 814 -226 1092 -518 282 -297 419 -682 418 -1174 -2 -660 -265
-1180 -769 -1519 -541 -364 -1314 -398 -1865 -81 -259 149 -471 378 -596 644
-53 114 -124 328 -149 452 -11 54 -21 99 -23 100 -2 2 -245 -16 -542 -38
l-538 -40 6 -65 c20 -190 104 -483 193 -672 102 -216 222 -387 398 -568 447
-460 1021 -708 1782 -772 184 -15 625 -7 792 15 674 89 1204 338 1631 765 430
431 676 921 756 1511 27 192 24 560 -5 748 -104 677 -442 1196 -1041 1597
-694 465 -1658 572 -2499 280 -205 -72 -424 -174 -600 -281 l-44 -27 6 24 c12
47 447 1979 447 1984 0 3 756 5 1680 5 l1680 0 0 440 0 440 -2090 0 c-1663 0
-2092 -3 -2095 -12z"/>
<path d="M2201 3665 c-79 -140 -146 -255 -149 -255 -20 0 -588 -62 -590 -65
-2 -2 91 -97 206 -211 l210 -209 -67 -285 c-37 -157 -67 -286 -66 -288 2 -2
125 56 275 128 150 71 275 130 279 130 3 0 119 -65 256 -144 138 -79 251 -143
253 -142 1 2 -9 118 -23 257 -14 140 -26 268 -27 286 -3 30 8 40 222 209 124
97 227 178 229 180 10 9 -19 16 -294 74 -160 34 -293 65 -297 68 -3 4 -66 122
-138 262 -73 140 -133 256 -134 257 -1 2 -67 -112 -145 -252z"/>
<path d="M10492 3858 c-11 -18 -72 -127 -137 -243 -64 -115 -122 -215 -128
-222 -7 -6 -121 -23 -267 -37 -140 -15 -274 -29 -297 -32 l-43 -6 212 -208
213 -207 -68 -288 c-37 -159 -66 -290 -64 -291 1 -2 123 55 271 127 148 71
274 129 280 129 6 0 124 -65 261 -144 138 -79 251 -143 251 -142 1 0 -11 127
-27 281 -15 154 -29 283 -29 287 0 4 104 89 231 190 136 107 226 184 218 187
-8 3 -142 32 -299 65 l-285 61 -136 263 -136 264 -21 -34z"/>
<path d="M4092 2433 c-49 -87 -111 -198 -138 -247 -27 -49 -58 -92 -69 -97
-11 -4 -141 -20 -290 -34 -148 -15 -277 -29 -285 -32 -10 -3 53 -71 197 -211
l212 -207 -68 -287 c-37 -159 -64 -288 -61 -288 4 0 130 58 279 130 l271 129
251 -145 c138 -80 253 -144 255 -141 2 2 -9 131 -24 287 l-28 283 141 111 c77
61 179 142 228 180 48 38 84 73 80 77 -5 3 -138 34 -297 67 -159 34 -290 62
-291 64 -1 2 -62 119 -134 261 -73 141 -134 257 -136 257 -2 0 -44 -71 -93
-157z"/>
<path d="M8671 2406 c-39 -69 -103 -183 -142 -252 -39 -69 -76 -127 -82 -129
-7 -2 -129 -16 -272 -30 -143 -14 -273 -29 -289 -33 -28 -7 -25 -11 181 -212
l210 -205 -63 -268 c-34 -147 -65 -279 -68 -292 -7 -27 -10 -28 365 153 l186
89 252 -144 c139 -80 254 -144 256 -142 2 3 -9 130 -25 284 -15 154 -26 283
-24 286 2 4 105 87 230 184 151 120 221 181 212 185 -7 4 -138 34 -290 65
-152 32 -281 61 -286 64 -5 3 -69 121 -142 261 -73 140 -133 256 -135 258 -2
2 -35 -53 -74 -122z"/>
<path d="M6346 1739 c-76 -138 -144 -252 -150 -254 -6 -2 -123 -16 -261 -30
-137 -14 -269 -28 -293 -31 l-43 -6 212 -207 213 -207 -67 -288 c-37 -159 -66
-290 -65 -291 2 -2 124 55 272 126 147 71 273 129 280 129 7 0 121 -63 254
-140 133 -77 246 -140 250 -140 5 0 -5 125 -20 278 -15 152 -26 282 -24 288 3
7 106 92 231 190 177 139 222 180 208 185 -10 3 -142 32 -293 64 -151 32 -279
61 -285 66 -5 4 -68 123 -140 263 -71 141 -132 255 -135 255 -3 0 -67 -112
-144 -250z"/>
</g>
</svg>
